<svg xmlns="http://www.w3.org/2000/svg" viewBox="0 0 512 512" role="img" aria-labelledby="title desc">
  <title id="title">Organism Volvox icon</title>
  <desc id="desc">A spherical green Volvox colony made from many small cells inside a translucent outer membrane.</desc>
  <defs>
    <radialGradient id="colonyFill" cx="37%" cy="28%" r="68%">
      <stop offset="0%" stop-color="#eaffb8"/>
      <stop offset="42%" stop-color="#8fd458"/>
      <stop offset="100%" stop-color="#2f8d4a"/>
    </radialGradient>
    <radialGradient id="cellFill" cx="34%" cy="30%" r="70%">
      <stop offset="0%" stop-color="#f6ffd1"/>
      <stop offset="58%" stop-color="#87c84f"/>
      <stop offset="100%" stop-color="#287844"/>
    </radialGradient>
    <filter id="softShadow" x="-20%" y="-20%" width="140%" height="145%">
      <feDropShadow dx="0" dy="18" stdDeviation="18" flood-color="#10331f" flood-opacity=".24"/>
    </filter>
  </defs>

  <rect width="512" height="512" rx="112" fill="#f7fbf4"/>

  <g filter="url(#softShadow)">
    <circle cx="256" cy="256" r="178" fill="url(#colonyFill)"/>
    <circle cx="256" cy="256" r="178" fill="none" stroke="#1f6f46" stroke-width="18"/>
    <circle cx="256" cy="256" r="149" fill="none" stroke="#d9ff9f" stroke-width="12" opacity=".45"/>

    <g fill="url(#cellFill)" stroke="#1e6e43" stroke-width="8">
      <circle cx="184" cy="144" r="23"/>
      <circle cx="261" cy="123" r="20"/>
      <circle cx="332" cy="159" r="24"/>
      <circle cx="140" cy="225" r="21"/>
      <circle cx="218" cy="213" r="26"/>
      <circle cx="301" cy="226" r="22"/>
      <circle cx="379" cy="242" r="20"/>
      <circle cx="168" cy="307" r="24"/>
      <circle cx="250" cy="294" r="23"/>
      <circle cx="329" cy="322" r="26"/>
      <circle cx="219" cy="382" r="19"/>
      <circle cx="301" cy="391" r="21"/>
    </g>

    <g stroke="#236f45" stroke-linecap="round" stroke-width="6" opacity=".52">
      <path d="M204 158c39 21 78 22 117 2"/>
      <path d="M159 238c58-22 123-26 191 2"/>
      <path d="M184 320c45 23 89 24 133 2"/>
      <path d="M227 137c-32 57-34 139-4 226"/>
      <path d="M306 151c31 55 34 132 9 220"/>
    </g>

    <path d="M151 171c35-48 82-75 142-79" fill="none" stroke="#ffffff" stroke-width="22" stroke-linecap="round" opacity=".48"/>
    <circle cx="256" cy="256" r="178" fill="none" stroke="#f5ffe8" stroke-width="6" opacity=".75"/>
  </g>
</svg>
